<?xml version="1.0" encoding="utf-8"?>
<!-- Generator: Adobe Illustrator 16.0.4, SVG Export Plug-In . SVG Version: 6.00 Build 0)  -->
<!DOCTYPE svg PUBLIC "-//W3C//DTD SVG 1.1//EN" "http://www.w3.org/Graphics/SVG/1.1/DTD/svg11.dtd">
<svg version="1.1" id="Layer_1" xmlns="http://www.w3.org/2000/svg" xmlns:xlink="http://www.w3.org/1999/xlink" x="0px" y="0px"
	 width="688px" height="458px" viewBox="0 0 688 458" enable-background="new 0 0 688 458" xml:space="preserve" xmlns:customizable="customizable-svg">
<text customizable:points="all" customizable:bindings="0:#lineA/0 0:#lineA/1" x="412" y="201" fill="#EE2A7B" font-family="'Verdana'" font-size="12">A</text>
<text customizable:points="all" customizable:bindings="0:#lineB/0 0:#lineB/1" x="412" y="340" fill="#1C75BC" font-family="'Verdana'" font-size="12">B</text>
<text transform="matrix(1 0 0 1 20.0029 32.5068)" font-family="'Verdana'" font-size="18">Customizable SVG Elastic Edges Test</text>

<text transform="matrix(1 0 0 1 20.0029 147.1807)" fill="#EE2A7B" font-family="'Verdana'" font-size="12">Length A</text>
<rect customizable:number-input="lengthA" x="85.167" y="130.834" fill="none" stroke="#000000" stroke-miterlimit="10" width="100" height="24"/>

<text transform="matrix(1 0 0 1 20.0029 184.5142)" fill="#1C75BC" font-family="'Verdana'" font-size="12">Length B</text>
<rect customizable:number-input="lengthB" x="85.167" y="168.167" fill="none" stroke="#000000" stroke-miterlimit="10" width="100" height="24"/>

<text transform="matrix(1 0 0 1 20.0029 224.5142)" fill="#000000" font-family="'Verdana'" font-size="12">Unit</text>
<rect customizable:unit-input="" x="85.167" y="208.167" fill="none" stroke="#000000" stroke-miterlimit="10" width="100" height="24"/>

<line id="lineA" customizable:lengths="lengthA" fill="none" stroke="#EE2A7B" stroke-miterlimit="10" stroke-dasharray="2" x1="302.168" y1="210" x2="530.168" y2="210"/>
<line id="lineB" customizable:lengths="lengthB" fill="none" stroke="#1C75BC" stroke-miterlimit="10" stroke-dasharray="2" x1="530.169" y1="348.749" x2="302.168" y2="348.749"/>
<polyline customizable:points="all" fill="none" stroke="#000000" stroke-miterlimit="10" points="302.168,210 367.502,138.5 388.668,174.5 440.668,115.833 
	530.168,210 "/>
  <polyline customizable:points="all" fill="none" stroke="#000000" stroke-miterlimit="10" points="302.168,210 388.668,180   	530.168,210 "/>

<line customizable:points="all" fill="none" stroke="#000000" stroke-miterlimit="10" x1="302.168" y1="348.749" x2="372.668" y2="286.083"/>
<line customizable:points="all" fill="none" stroke="#000000" stroke-miterlimit="10" x1="466.668" y1="296.416" x2="530.169" y2="348.749"/>
<polygon customizable:points="all" fill="none" stroke="#000000" stroke-miterlimit="10" points="409.335,250.75 372.668,286.083 466.668,296.416 "/>
<polyline customizable:points="all" fill="none" stroke="#000000" stroke-miterlimit="10" points="302.168,210 409.335,250.75 530.168,210 466.668,296.416 "/>
<script type="text/javascript" xlink:href="javascripts/customizable-svg.js" />
</svg>
