<?xml version="1.0" encoding="utf-8"?>
<!-- Generator: Adobe Illustrator 15.0.2, SVG Export Plug-In  -->
<!DOCTYPE svg PUBLIC "-//W3C//DTD SVG 1.1//EN" "http://www.w3.org/Graphics/SVG/1.1/DTD/svg11.dtd" [
	<!ENTITY ns_flows "http://ns.adobe.com/Flows/1.0/">
]>
<svg version="1.1"
	 xmlns="http://www.w3.org/2000/svg" xmlns:xlink="http://www.w3.org/1999/xlink" xmlns:a="http://ns.adobe.com/AdobeSVGViewerExtensions/3.0/"
	 x="0px" y="0px" width="688px" height="458px" viewBox="-20.003 -16.963 688 458" enable-background="new -20.003 -16.963 688 458"
	 xml:space="preserve" xmlns:personalizable="personalizable-svg">
<defs>
</defs>
<text transform="matrix(1 0 0 1 0 130.2173)" fill="#EE2A7B" font-family="'Verdana'" font-size="12">Length A</text>
<text transform="matrix(1 0 0 1 415.3955 103.8701)" fill="#EE2A7B" font-family="'Verdana'" font-size="12">A</text>
<text transform="matrix(1 0 0 1 545.7178 227.2026)" fill="#1C75BC" font-family="'Verdana'" font-size="12">B</text>
<text transform="matrix(1 0 0 1 453.3076 366.5366)" fill="#39B54A" font-family="'Verdana'" font-size="12">C</text>
<text transform="matrix(1 0 0 1 0 15.5435)" font-family="'Verdana'" font-size="18">Customizable SVG Simple Example</text>
<rect personalizable:name="lengthA" personalizable:number-input="" x="65.164" y="113.871" fill="none" stroke="#000000" stroke-miterlimit="10" width="100" height="24"/>
<text transform="matrix(1 0 0 1 0 167.5508)" fill="#1C75BC" font-family="'Verdana'" font-size="12">Length B</text>
<rect personalizable:name="lengthB" personalizable:number-input="" x="65.164" y="151.204" fill="none" stroke="#000000" stroke-miterlimit="10" width="100" height="24"/>
<text transform="matrix(1 0 0 1 0 202.2178)" fill="#39B54A" font-family="'Verdana'" font-size="12">Length C</text>
<rect personalizable:name="lengthC" personalizable:number-input="" x="65.164" y="185.871" fill="none" stroke="#000000" stroke-miterlimit="10" width="100" height="24"/>
<line personalizable:length="lengthA" fill="none" stroke="#EE2A7B" stroke-miterlimit="10" stroke-dasharray="2" x1="305.497" y1="112.537" x2="533.497" y2="112.537"/>
<line personalizable:length="lengthB" fill="none" stroke="#1C75BC" stroke-miterlimit="10" stroke-dasharray="2" x1="533.497" y1="112.537" x2="550" y2="348.537"/>
<line personalizable:length="lengthC" fill="none" stroke="#39B54A" stroke-miterlimit="10" stroke-dasharray="2" x1="550" y1="348.537" x2="370.831" y2="348.537"/>
<polygon fill="none" stroke="#231F20" stroke-miterlimit="10" points="305.497,112.537 550,348.537 231.497,257.203 
	533.497,112.537 370.831,348.537 "/>
	<script type="text/javascript" xlink:href="javascripts/customizable-svg.js" />
</svg>
